Coordinates
version=1
nRows=38
nColumns=12
inDegrees=yes

Units are S.I. units (second, meters, Newtons, ...)
Angles are in degrees

endheader
time	SC_y	SC_z	SC_x	AC_y	AC_z	AC_x	GH_y	GH_z	GH_yy	EL_x	PS_y
       0.0              -52.19          37.26           84.8          44.69         -17.86          9.549         -150.0          70.32          25.18          86.89          152.5
   0.03025              -52.19          37.26           84.8          44.69         -17.86          9.548         -150.0          70.31          25.18          86.88          152.5
   0.06049              -52.19          37.26           84.8          44.69         -17.86          9.546         -150.0           70.3          25.19          86.87          152.5
   0.09074              -52.19          37.26           84.8          44.69         -17.85          9.545         -150.0          70.29           25.2          86.86          152.5
     0.121              -52.19          37.26           84.8          44.68         -17.85          9.544         -150.0          70.28          25.21          86.85          152.5
    0.1512              -52.19          37.26           84.8          44.68         -17.84          9.542         -149.9          70.27          25.22          86.84          152.5
    0.1815              -52.19          37.26           84.8          44.68         -17.84           9.54         -149.9          70.25          25.23          86.83          152.5
    0.2117              -52.19          37.26           84.8          44.68         -17.83          9.539         -149.9          70.24          25.24          86.81          152.5
     0.242              -52.19          37.26           84.8          44.68         -17.82          9.537         -149.9          70.23          25.26           86.8          152.4
    0.2722              -52.19          37.26           84.8          44.67         -17.82          9.535         -149.8          70.21          25.27          86.79          152.4
    0.3025              -52.18          37.26           84.8          44.67         -17.81          9.533         -149.8          70.19          25.28          86.77          152.4
    0.3327              -52.18          37.26           84.8          44.67          -17.8          9.531         -149.8          70.18           25.3          86.76          152.4
     0.363              -52.18          37.26           84.8          44.67         -17.79          9.528         -149.7          70.16          25.32          86.74          152.4
    0.3932              -52.18          37.26           84.8          44.67         -17.78          9.525         -149.7          70.14          25.33          86.72          152.4
    0.4235              -52.18          37.26           84.8          44.66         -17.77          9.523         -149.7          70.11          25.35           86.7          152.4
    0.4537              -52.18          37.26           84.8          44.66         -17.76          9.519         -149.6          70.09          25.37          86.68          152.4
     0.484              -52.18          37.26           84.8          44.66         -17.75          9.516         -149.6          70.06           25.4          86.65          152.4
    0.5142              -52.18          37.26           84.8          44.65         -17.74          9.512         -149.5          70.03          25.42          86.63          152.3
    0.5445              -52.18          37.27           84.8          44.65         -17.72          9.508         -149.5           70.0          25.45           86.6          152.3
    0.5747              -52.18          37.27           84.8          44.64         -17.71          9.504         -149.4          69.97          25.48          86.57          152.3
    0.6049              -52.18          37.27           84.8          44.64         -17.69          9.499         -149.4          69.93          25.51          86.53          152.3
    0.6352              -52.18          37.27           84.8          44.63         -17.67          9.494         -149.3          69.89          25.55           86.5          152.3
    0.6654              -52.18          37.27           84.8          44.63         -17.65          9.488         -149.2          69.84          25.59          86.45          152.2
    0.6957              -52.18          37.27           84.8          44.62         -17.63          9.481         -149.1          69.79          25.63          86.41          152.2
    0.7259              -52.18          37.27           84.8          44.61         -17.61          9.474         -149.0          69.73          25.68          86.36          152.2
    0.7562              -52.18          37.27           84.8           44.6         -17.58          9.466         -148.9          69.67          25.73           86.3          152.1
    0.7864              -52.18          37.27           84.8          44.59         -17.55          9.457         -148.8           69.6          25.79          86.23          152.1
    0.8167              -52.17          37.27           84.8          44.58         -17.51          9.447         -148.7          69.52          25.86          86.16          152.1
    0.8469              -52.17          37.27           84.8          44.57         -17.47          9.435         -148.5          69.43          25.94          86.08          152.0
    0.8772              -52.17          37.28           84.8          44.56         -17.43          9.422         -148.3          69.33          26.03          85.99          152.0
    0.9074              -52.17          37.28           84.8          44.54         -17.38          9.407         -148.1          69.21          26.13          85.88          151.9
    0.9377              -52.17          37.28           84.8          44.53         -17.32           9.39         -147.9          69.08          26.24          85.76          151.8
    0.9679              -52.17          37.28           84.8          44.51         -17.25           9.37         -147.6          68.92          26.38          85.62          151.7
    0.9982              -52.16          37.28           84.8          44.48         -17.17          9.347         -147.3          68.74          26.53          85.46          151.6
     1.028              -52.16          37.29           84.8          44.45         -17.08          9.321         -147.0          68.53          26.71          85.27          151.5
     1.059              -52.16          37.29           84.8          44.42         -16.97          9.289         -146.5          68.28          26.92          85.04          151.4
     1.089              -52.15          37.29           84.8          44.38         -16.84          9.251         -146.0          67.99          27.18          84.77          151.2
     1.119              -52.15           37.3           84.8          44.34         -16.68          9.206         -145.4          67.63          27.48          84.45          151.1
